<svg xmlns="http://www.w3.org/2000/svg" width="591.353" height="652.147" viewBox="0 0 591.353 652.147">
  <g id="Group_1" data-name="Group 1" transform="translate(-3395.087 1587.7)">
    <path id="Path_37" data-name="Path 37" d="M1175.994-1350.74v200" transform="translate(2515 -212.133)" fill="none" stroke="#2aa57f" stroke-linecap="round" stroke-width="40"/>
    <path id="Path_38" data-name="Path 38" d="M1175.994-1350.74v200" transform="translate(2515 -12.133)" fill="none" stroke="#2aa57f" stroke-linecap="round" stroke-width="40"/>
    <path id="Path_39" data-name="Path 39" d="M1175.994-1350.74v200" transform="translate(2515 187.867)" fill="none" stroke="#2aa57f" stroke-linecap="round" stroke-width="40"/>
    <path id="Path_33" data-name="Path 33" d="M1175.994-1350.74v300" transform="translate(2193.259 -1656.076) rotate(60)" fill="none" stroke="#2aa57f" stroke-linecap="round" stroke-width="40"/>
    <path id="Path_34" data-name="Path 34" d="M1175.994-1350.741v300" transform="translate(2193.029 -1455.943) rotate(60)" fill="none" stroke="#2aa57f" stroke-linecap="round" stroke-width="40"/>
    <path id="Path_40" data-name="Path 40" d="M1175.994-1350.74v300" transform="translate(4012.735 380.805) rotate(-60)" fill="none" stroke="#2aa57f" stroke-linecap="round" stroke-width="40"/>
    <path id="Path_41" data-name="Path 41" d="M1175.994-1350.74v300" transform="translate(4013.359 580.938) rotate(-60)" fill="none" stroke="#2aa57f" stroke-linecap="round" stroke-width="40"/>
    <path id="Path_36" data-name="Path 36" d="M1175.994-1350.74v200" transform="translate(2106.426 -1805.943) rotate(60)" fill="none" stroke="#2aa57f" stroke-linecap="round" stroke-width="40"/>
    <path id="Path_42" data-name="Path 42" d="M1175.994-1350.74v200" transform="translate(4099.567 230.938) rotate(-60)" fill="none" stroke="#2aa57f" stroke-linecap="round" stroke-width="40"/>
    <path id="Path_35" data-name="Path 35" d="M2059.474-1588.113s166.747,49.363,237.123,172.862,22.57,277.11,22.57,277.11" transform="translate(1631.376 25.268)" fill="none" stroke="#2aa57f" stroke-linecap="round" stroke-width="40"/>
    <path id="Path_43" data-name="Path 43" d="M2335.033-1588.082h0c-.333.1-166.907,49.456-237.213,172.831-70.376,123.5-22.569,277.11-22.569,277.11" transform="translate(1355.736 25.268)" fill="none" stroke="#2aa57f" stroke-linecap="round" stroke-width="40"/>
  </g>
</svg>
