<svg xmlns="http://www.w3.org/2000/svg" width="177" height="177" viewBox="0 0 177 177">
  <g id="Group_150" data-name="Group 150" transform="translate(-2749 -3593)">
    <rect id="Rectangle_164" data-name="Rectangle 164" width="177" height="177" transform="translate(2749 3593)" fill="#2bc495" opacity="0"/>
    <g id="Group_119" data-name="Group 119" transform="translate(2718 3472)">
      <path id="icons8-christmas-gift" d="M7.442,2A3.272,3.272,0,0,0,4.177,5.265a3.192,3.192,0,0,0,.2,1.088h-.2A2.176,2.176,0,0,0,2,8.531v4.354h9.8V6.354h2.177v6.531h9.8V8.531a2.176,2.176,0,0,0-2.177-2.177h-.2a3.192,3.192,0,0,0,.2-1.088A3.272,3.272,0,0,0,18.327,2a6.49,6.49,0,0,0-4.184,2.177H11.626A6.49,6.49,0,0,0,7.442,2Zm0,2.177c.982,0,2.22,1.042,3.231,2.177H7.442a1.088,1.088,0,1,1,0-2.177Zm10.885,0a1.088,1.088,0,1,1,0,2.177H15.1C16.078,5.253,17.337,4.177,18.327,4.177ZM2,15.062v6.531A2.176,2.176,0,0,0,4.177,23.77H11.8V15.062Zm11.973,0V23.77h7.619a2.176,2.176,0,0,0,2.177-2.177V15.062Z" transform="translate(78.763 228.472)" fill="#fff" opacity="0.2"/>
      <path id="icons8-christmas-gift-2" data-name="icons8-christmas-gift" d="M7.442,2A3.272,3.272,0,0,0,4.177,5.265a3.192,3.192,0,0,0,.2,1.088h-.2A2.176,2.176,0,0,0,2,8.531v4.354h9.8V6.354h2.177v6.531h9.8V8.531a2.176,2.176,0,0,0-2.177-2.177h-.2a3.192,3.192,0,0,0,.2-1.088A3.272,3.272,0,0,0,18.327,2a6.49,6.49,0,0,0-4.184,2.177H11.626A6.49,6.49,0,0,0,7.442,2Zm0,2.177c.982,0,2.22,1.042,3.231,2.177H7.442a1.088,1.088,0,1,1,0-2.177Zm10.885,0a1.088,1.088,0,1,1,0,2.177H15.1C16.078,5.253,17.337,4.177,18.327,4.177ZM2,15.062v6.531A2.176,2.176,0,0,0,4.177,23.77H11.8V15.062Zm11.973,0V23.77h7.619a2.176,2.176,0,0,0,2.177-2.177V15.062Z" transform="translate(134.842 228.472)" fill="#fff" opacity="0.2"/>
      <path id="icons8-christmas-gift-3" data-name="icons8-christmas-gift" d="M7.442,2A3.272,3.272,0,0,0,4.177,5.265a3.192,3.192,0,0,0,.2,1.088h-.2A2.176,2.176,0,0,0,2,8.531v4.354h9.8V6.354h2.177v6.531h9.8V8.531a2.176,2.176,0,0,0-2.177-2.177h-.2a3.192,3.192,0,0,0,.2-1.088A3.272,3.272,0,0,0,18.327,2a6.49,6.49,0,0,0-4.184,2.177H11.626A6.49,6.49,0,0,0,7.442,2Zm0,2.177c.982,0,2.22,1.042,3.231,2.177H7.442a1.088,1.088,0,1,1,0-2.177Zm10.885,0a1.088,1.088,0,1,1,0,2.177H15.1C16.078,5.253,17.337,4.177,18.327,4.177ZM2,15.062v6.531A2.176,2.176,0,0,0,4.177,23.77H11.8V15.062Zm11.973,0V23.77h7.619a2.176,2.176,0,0,0,2.177-2.177V15.062Z" transform="translate(78.388 164.758)" fill="#fff" opacity="0.2"/>
      <path id="icons8-christmas-gift-4" data-name="icons8-christmas-gift" d="M7.442,2A3.272,3.272,0,0,0,4.177,5.265a3.192,3.192,0,0,0,.2,1.088h-.2A2.176,2.176,0,0,0,2,8.531v4.354h9.8V6.354h2.177v6.531h9.8V8.531a2.176,2.176,0,0,0-2.177-2.177h-.2a3.192,3.192,0,0,0,.2-1.088A3.272,3.272,0,0,0,18.327,2a6.49,6.49,0,0,0-4.184,2.177H11.626A6.49,6.49,0,0,0,7.442,2Zm0,2.177c.982,0,2.22,1.042,3.231,2.177H7.442a1.088,1.088,0,1,1,0-2.177Zm10.885,0a1.088,1.088,0,1,1,0,2.177H15.1C16.078,5.253,17.337,4.177,18.327,4.177ZM2,15.062v6.531A2.176,2.176,0,0,0,4.177,23.77H11.8V15.062Zm11.973,0V23.77h7.619a2.176,2.176,0,0,0,2.177-2.177V15.062Z" transform="translate(134.467 164.758)" fill="#fff" opacity="0.2"/>
      <path id="icons8-christmas-gift-5" data-name="icons8-christmas-gift" d="M7.442,2A3.272,3.272,0,0,0,4.177,5.265a3.192,3.192,0,0,0,.2,1.088h-.2A2.176,2.176,0,0,0,2,8.531v4.354h9.8V6.354h2.177v6.531h9.8V8.531a2.176,2.176,0,0,0-2.177-2.177h-.2a3.192,3.192,0,0,0,.2-1.088A3.272,3.272,0,0,0,18.327,2a6.49,6.49,0,0,0-4.184,2.177H11.626A6.49,6.49,0,0,0,7.442,2Zm0,2.177c.982,0,2.22,1.042,3.231,2.177H7.442a1.088,1.088,0,1,1,0-2.177Zm10.885,0a1.088,1.088,0,1,1,0,2.177H15.1C16.078,5.253,17.337,4.177,18.327,4.177ZM2,15.062v6.531A2.176,2.176,0,0,0,4.177,23.77H11.8V15.062Zm11.973,0V23.77h7.619a2.176,2.176,0,0,0,2.177-2.177V15.062Z" transform="translate(44.675 260.314)" fill="#fff" opacity="0.2"/>
      <path id="icons8-christmas-gift-6" data-name="icons8-christmas-gift" d="M7.442,2A3.272,3.272,0,0,0,4.177,5.265a3.192,3.192,0,0,0,.2,1.088h-.2A2.176,2.176,0,0,0,2,8.531v4.354h9.8V6.354h2.177v6.531h9.8V8.531a2.176,2.176,0,0,0-2.177-2.177h-.2a3.192,3.192,0,0,0,.2-1.088A3.272,3.272,0,0,0,18.327,2a6.49,6.49,0,0,0-4.184,2.177H11.626A6.49,6.49,0,0,0,7.442,2Zm0,2.177c.982,0,2.22,1.042,3.231,2.177H7.442a1.088,1.088,0,1,1,0-2.177Zm10.885,0a1.088,1.088,0,1,1,0,2.177H15.1C16.078,5.253,17.337,4.177,18.327,4.177ZM2,15.062v6.531A2.176,2.176,0,0,0,4.177,23.77H11.8V15.062Zm11.973,0V23.77h7.619a2.176,2.176,0,0,0,2.177-2.177V15.062Z" transform="translate(108.544 260.344)" fill="#fff" opacity="0.2"/>
      <path id="icons8-christmas-gift-7" data-name="icons8-christmas-gift" d="M7.442,2A3.272,3.272,0,0,0,4.177,5.265a3.192,3.192,0,0,0,.2,1.088h-.2A2.176,2.176,0,0,0,2,8.531v4.354h9.8V6.354h2.177v6.531h9.8V8.531a2.176,2.176,0,0,0-2.177-2.177h-.2a3.192,3.192,0,0,0,.2-1.088A3.272,3.272,0,0,0,18.327,2a6.49,6.49,0,0,0-4.184,2.177H11.626A6.49,6.49,0,0,0,7.442,2Zm0,2.177c.982,0,2.22,1.042,3.231,2.177H7.442a1.088,1.088,0,1,1,0-2.177Zm10.885,0a1.088,1.088,0,1,1,0,2.177H15.1C16.078,5.253,17.337,4.177,18.327,4.177ZM2,15.062v6.531A2.176,2.176,0,0,0,4.177,23.77H11.8V15.062Zm11.973,0V23.77h7.619a2.176,2.176,0,0,0,2.177-2.177V15.062Z" transform="translate(168.834 260.344)" fill="#fff" opacity="0.2"/>
      <path id="icons8-christmas-gift-8" data-name="icons8-christmas-gift" d="M7.442,2A3.272,3.272,0,0,0,4.177,5.265a3.192,3.192,0,0,0,.2,1.088h-.2A2.176,2.176,0,0,0,2,8.531v4.354h9.8V6.354h2.177v6.531h9.8V8.531a2.176,2.176,0,0,0-2.177-2.177h-.2a3.192,3.192,0,0,0,.2-1.088A3.272,3.272,0,0,0,18.327,2a6.49,6.49,0,0,0-4.184,2.177H11.626A6.49,6.49,0,0,0,7.442,2Zm0,2.177c.982,0,2.22,1.042,3.231,2.177H7.442a1.088,1.088,0,1,1,0-2.177Zm10.885,0a1.088,1.088,0,1,1,0,2.177H15.1C16.078,5.253,17.337,4.177,18.327,4.177ZM2,15.062v6.531A2.176,2.176,0,0,0,4.177,23.77H11.8V15.062Zm11.973,0V23.77h7.619a2.176,2.176,0,0,0,2.177-2.177V15.062Z" transform="translate(44.396 196.6)" fill="#fff" opacity="0.2"/>
      <path id="icons8-christmas-gift-9" data-name="icons8-christmas-gift" d="M7.442,2A3.272,3.272,0,0,0,4.177,5.265a3.192,3.192,0,0,0,.2,1.088h-.2A2.176,2.176,0,0,0,2,8.531v4.354h9.8V6.354h2.177v6.531h9.8V8.531a2.176,2.176,0,0,0-2.177-2.177h-.2a3.192,3.192,0,0,0,.2-1.088A3.272,3.272,0,0,0,18.327,2a6.49,6.49,0,0,0-4.184,2.177H11.626A6.49,6.49,0,0,0,7.442,2Zm0,2.177c.982,0,2.22,1.042,3.231,2.177H7.442a1.088,1.088,0,1,1,0-2.177Zm10.885,0a1.088,1.088,0,1,1,0,2.177H15.1C16.078,5.253,17.337,4.177,18.327,4.177ZM2,15.062v6.531A2.176,2.176,0,0,0,4.177,23.77H11.8V15.062Zm11.973,0V23.77h7.619a2.176,2.176,0,0,0,2.177-2.177V15.062Z" transform="translate(108.265 196.63)" fill="#fff" opacity="0.2"/>
      <path id="icons8-christmas-gift-10" data-name="icons8-christmas-gift" d="M7.442,2A3.272,3.272,0,0,0,4.177,5.265a3.192,3.192,0,0,0,.2,1.088h-.2A2.176,2.176,0,0,0,2,8.531v4.354h9.8V6.354h2.177v6.531h9.8V8.531a2.176,2.176,0,0,0-2.177-2.177h-.2a3.192,3.192,0,0,0,.2-1.088A3.272,3.272,0,0,0,18.327,2a6.49,6.49,0,0,0-4.184,2.177H11.626A6.49,6.49,0,0,0,7.442,2Zm0,2.177c.982,0,2.22,1.042,3.231,2.177H7.442a1.088,1.088,0,1,1,0-2.177Zm10.885,0a1.088,1.088,0,1,1,0,2.177H15.1C16.078,5.253,17.337,4.177,18.327,4.177ZM2,15.062v6.531A2.176,2.176,0,0,0,4.177,23.77H11.8V15.062Zm11.973,0V23.77h7.619a2.176,2.176,0,0,0,2.177-2.177V15.062Z" transform="translate(168.555 196.63)" fill="#fff" opacity="0.2"/>
      <path id="icons8-christmas-gift-11" data-name="icons8-christmas-gift" d="M7.442,2A3.272,3.272,0,0,0,4.177,5.265a3.192,3.192,0,0,0,.2,1.088h-.2A2.176,2.176,0,0,0,2,8.531v4.354h9.8V6.354h2.177v6.531h9.8V8.531a2.176,2.176,0,0,0-2.177-2.177h-.2a3.192,3.192,0,0,0,.2-1.088A3.272,3.272,0,0,0,18.327,2a6.49,6.49,0,0,0-4.184,2.177H11.626A6.49,6.49,0,0,0,7.442,2Zm0,2.177c.982,0,2.22,1.042,3.231,2.177H7.442a1.088,1.088,0,1,1,0-2.177Zm10.885,0a1.088,1.088,0,1,1,0,2.177H15.1C16.078,5.253,17.337,4.177,18.327,4.177ZM2,15.062v6.531A2.176,2.176,0,0,0,4.177,23.77H11.8V15.062Zm11.973,0V23.77h7.619a2.176,2.176,0,0,0,2.177-2.177V15.062Z" transform="translate(44.396 132.886)" fill="#fff" opacity="0.2"/>
      <path id="icons8-christmas-gift-12" data-name="icons8-christmas-gift" d="M7.442,2A3.272,3.272,0,0,0,4.177,5.265a3.192,3.192,0,0,0,.2,1.088h-.2A2.176,2.176,0,0,0,2,8.531v4.354h9.8V6.354h2.177v6.531h9.8V8.531a2.176,2.176,0,0,0-2.177-2.177h-.2a3.192,3.192,0,0,0,.2-1.088A3.272,3.272,0,0,0,18.327,2a6.49,6.49,0,0,0-4.184,2.177H11.626A6.49,6.49,0,0,0,7.442,2Zm0,2.177c.982,0,2.22,1.042,3.231,2.177H7.442a1.088,1.088,0,1,1,0-2.177Zm10.885,0a1.088,1.088,0,1,1,0,2.177H15.1C16.078,5.253,17.337,4.177,18.327,4.177ZM2,15.062v6.531A2.176,2.176,0,0,0,4.177,23.77H11.8V15.062Zm11.973,0V23.77h7.619a2.176,2.176,0,0,0,2.177-2.177V15.062Z" transform="translate(108.265 132.916)" fill="#fff" opacity="0.2"/>
      <path id="icons8-christmas-gift-13" data-name="icons8-christmas-gift" d="M7.442,2A3.272,3.272,0,0,0,4.177,5.265a3.192,3.192,0,0,0,.2,1.088h-.2A2.176,2.176,0,0,0,2,8.531v4.354h9.8V6.354h2.177v6.531h9.8V8.531a2.176,2.176,0,0,0-2.177-2.177h-.2a3.192,3.192,0,0,0,.2-1.088A3.272,3.272,0,0,0,18.327,2a6.49,6.49,0,0,0-4.184,2.177H11.626A6.49,6.49,0,0,0,7.442,2Zm0,2.177c.982,0,2.22,1.042,3.231,2.177H7.442a1.088,1.088,0,1,1,0-2.177Zm10.885,0a1.088,1.088,0,1,1,0,2.177H15.1C16.078,5.253,17.337,4.177,18.327,4.177ZM2,15.062v6.531A2.176,2.176,0,0,0,4.177,23.77H11.8V15.062Zm11.973,0V23.77h7.619a2.176,2.176,0,0,0,2.177-2.177V15.062Z" transform="translate(168.555 132.916)" fill="#fff" opacity="0.2"/>
    </g>
  </g>
</svg>
