<svg xmlns="http://www.w3.org/2000/svg" width="22" height="17.81" viewBox="0 0 22 17.81">
  <path id="icons8-card-payment" d="M10.429,4a2.1,2.1,0,0,0-2.1,2.1V7.143H23V6.1A2.1,2.1,0,0,0,20.9,4ZM6.238,8.19,1.9,11.2A2.091,2.091,0,0,0,1,12.923v6.791a2.1,2.1,0,0,0,2.1,2.1H8.943a3.509,3.509,0,0,0,2.92-1.563l3.521-3.963a1.531,1.531,0,0,0-.035-1.842l-.763-.98L8.966,16.966a1.784,1.784,0,0,1-2.727-1.514Zm2.1,1.048v4.19a2.078,2.078,0,0,0,.395,1.215l4.749-2.959,1.6-1,1.16,1.485L17,13.15a3.616,3.616,0,0,1,.751,2.371H20.9a2.1,2.1,0,0,0,2.1-2.1V9.238Z" transform="translate(-1 -4)"/>
</svg>
