<svg xmlns="http://www.w3.org/2000/svg" width="28.658" height="30" viewBox="0 0 28.658 30">
  <path id="icons8-cherry" d="M20.924,1.109A8.832,8.832,0,0,0,17.9,4.323a12.727,12.727,0,0,0-4.7,2.433A14.073,14.073,0,0,0,8.074,17.573a4.528,4.528,0,0,0-.542-.038C4.982,17.535,2,19.141,2,23.662a7.6,7.6,0,0,0,7.541,7.447c3.559,0,7.541-3.185,7.541-7.447,0-4.495-3.309-6.127-5.532-6.127a4.565,4.565,0,0,0-.462.032c.192-4.451,2.078-6.929,3.995-8.449.232-.184.462-.35.689-.5a13.483,13.483,0,0,0,3.317,10.534,10.224,10.224,0,0,1-.3,9.441,8.865,8.865,0,0,0,4.1,1.01,8.025,8.025,0,0,0,4.089-1.087,7.612,7.612,0,0,0,3.482-4.9,7.456,7.456,0,0,0-1.04-5.865c-2.624-3.937-6.532-3.636-8.507-2.474a4.784,4.784,0,0,0-.625.436,9.374,9.374,0,0,1-1.656-5.361c1.687,1.463,4.451,1.271,5.992.84,0,0-.637-3.393-2.513-4.973-.581-.489-1.018-.814-1.387-1.072A8.784,8.784,0,0,1,22.291,3.8Z" transform="translate(-2 -1.109)"/>
</svg>
