<svg xmlns="http://www.w3.org/2000/svg" width="30" height="30" viewBox="0 0 30 30">
  <path id="icons8-trust" d="M18.538,2A4.538,4.538,0,0,0,14,6.538c0,3.712,8.25,10.313,8.25,10.313s8.25-6.6,8.25-10.312A4.538,4.538,0,0,0,25.962,2,4.933,4.933,0,0,0,22.25,3.723,4.933,4.933,0,0,0,18.538,2ZM29.879,17a2.115,2.115,0,0,0-1.5.621L21.5,24.5h-6a.75.75,0,0,1,0-1.5h3a3,3,0,0,0,3-3V18.5H11.984a5.993,5.993,0,0,0-4.242,1.758L2,26l6,6,3-3H21.758a3,3,0,0,0,2.121-.879l7.5-7.5A2.121,2.121,0,0,0,29.879,17Z" transform="translate(-2 -2)"/>
</svg>
