<svg xmlns="http://www.w3.org/2000/svg" width="31.458" height="35" viewBox="0 0 31.458 35">
  <path id="icons8-leaf" d="M27.508,2.666,26.836,1.9l-.994.206c-.626.133-15.384,3.282-21.224,12.033A11.852,11.852,0,0,0,9.211,30.556a20.58,20.58,0,0,1-5.112,3.1L5.4,36.9C14.752,33.16,23.933,20.26,23.96,10.835l.012-.023c0,13.982-5.243,20.973-5.243,20.973.016.012.028.019.042.031L17.4,33.258a7.5,7.5,0,0,0,5.362,2.02c5.916-.236,11.825-4.993,11.691-15.093A28.33,28.33,0,0,0,27.508,2.666Z" transform="translate(-3 -1.902)"/>
</svg>
