<svg xmlns="http://www.w3.org/2000/svg" width="33.333" height="30" viewBox="0 0 33.333 30">
  <path id="icons8-trophy" d="M2,3V4.667A18.3,18.3,0,0,0,5.613,15.174c1.714,2.571,3.053,4.4,3.053,6.159H12c0-.027-.006-.051-.007-.078a14.275,14.275,0,0,0,3.34,5.078H22a14.275,14.275,0,0,0,3.34-5.078c0,.027-.007.051-.007.078h3.333c0-1.759,1.339-3.588,3.053-6.159A18.3,18.3,0,0,0,35.333,4.667V3ZM5.652,6.333h3.47a47.4,47.4,0,0,0,1.224,9.958c-.619-1.013-1.308-1.988-1.96-2.965A16.307,16.307,0,0,1,5.652,6.333Zm22.559,0h3.47a16.307,16.307,0,0,1-2.734,6.992c-.652.978-1.341,1.952-1.96,2.965A47.4,47.4,0,0,0,28.211,6.333ZM10.333,29.667V33H27V29.667Z" transform="translate(-2 -3)"/>
</svg>
