<svg xmlns="http://www.w3.org/2000/svg" width="11.429" height="15" viewBox="0 0 11.429 15">
  <path id="icons8-lock" d="M9.714,1A4.277,4.277,0,0,0,5.429,5.286V6A1.433,1.433,0,0,0,4,7.429v7.143A1.433,1.433,0,0,0,5.429,16H14a1.433,1.433,0,0,0,1.429-1.429V7.429A1.433,1.433,0,0,0,14,6V5.286A4.277,4.277,0,0,0,9.714,1Zm0,1.429a2.8,2.8,0,0,1,2.857,2.857V6H6.857V5.286A2.8,2.8,0,0,1,9.714,2.429Zm0,7.143A1.429,1.429,0,1,1,8.286,11,1.433,1.433,0,0,1,9.714,9.571Z" transform="translate(-4 -1)" fill="#fff"/>
</svg>
