<svg xmlns="http://www.w3.org/2000/svg" width="22.222" height="20" viewBox="0 0 22.222 20">
  <path id="icons8-trophy" d="M2,3V4.111a12.2,12.2,0,0,0,2.409,7.005c1.143,1.714,2.036,2.933,2.036,4.106H8.667c0-.018,0-.034,0-.052a9.517,9.517,0,0,0,2.227,3.385h4.444A9.517,9.517,0,0,0,17.56,15.17c0,.018,0,.034,0,.052h2.222c0-1.173.893-2.392,2.036-4.106a12.2,12.2,0,0,0,2.409-7.005V3ZM4.435,5.222H6.748a31.6,31.6,0,0,0,.816,6.638c-.412-.675-.872-1.325-1.306-1.977A10.871,10.871,0,0,1,4.435,5.222Zm15.039,0h2.313a10.871,10.871,0,0,1-1.823,4.661c-.435.652-.894,1.3-1.306,1.977A31.6,31.6,0,0,0,19.474,5.222ZM7.556,20.778V23H18.667V20.778Z" transform="translate(-2 -3)"/>
</svg>
